<?xml version="1.0" standalone="no"?>
<!DOCTYPE svg PUBLIC "-//W3C//DTD SVG 20010904//EN"
 "http://www.w3.org/TR/2001/REC-SVG-20010904/DTD/svg10.dtd">
<svg version="1.0" xmlns="http://www.w3.org/2000/svg"
 width="1280.000000pt" height="1154.000000pt" viewBox="0 0 1280.000000 1154.000000"
 preserveAspectRatio="xMidYMid meet">
<metadata>
Created by potrace 1.15, written by Peter Selinger 2001-2017
</metadata>
<g transform="translate(0.000000,1154.000000) scale(0.100000,-0.100000)"
fill="#000000" stroke="none">
<path d="M6806 9947 c-14 -5 -26 -16 -26 -25 0 -9 -24 -34 -53 -55 -28 -20
-81 -62 -117 -92 -36 -30 -92 -78 -125 -105 -34 -27 -82 -70 -108 -95 -27 -25
-51 -45 -54 -45 -3 0 -19 -13 -35 -30 -15 -16 -30 -30 -33 -30 -3 0 -13 -8
-24 -17 -10 -10 -35 -31 -56 -48 -63 -50 -82 -69 -88 -88 -4 -10 -11 -15 -17
-12 -5 3 -10 1 -10 -5 0 -6 -4 -9 -8 -6 -5 3 -30 -17 -56 -45 -26 -28 -52 -47
-58 -43 -6 4 -8 3 -4 -4 5 -9 -8 -24 -24 -28 -20 -4 -40 -18 -40 -28 0 -7 -12
-19 -27 -27 -16 -8 -30 -17 -33 -20 -3 -3 -20 -14 -38 -23 -19 -10 -32 -20
-29 -23 5 -5 -29 -43 -38 -43 -7 0 -30 -19 -60 -47 -12 -13 -26 -23 -31 -23
-9 0 -80 -55 -129 -99 -11 -9 -28 -20 -37 -24 -10 -3 -18 -13 -18 -22 0 -8 -7
-15 -15 -15 -8 0 -15 -4 -15 -9 0 -5 -14 -14 -30 -20 -17 -5 -29 -16 -28 -23
2 -7 -7 -14 -19 -16 -13 -2 -23 -8 -23 -13 0 -5 -11 -14 -25 -19 -16 -6 -23
-14 -19 -25 4 -9 1 -15 -9 -15 -8 0 -20 -7 -27 -15 -7 -8 -15 -13 -19 -11 -3
3 -24 -11 -45 -30 -21 -19 -42 -34 -46 -34 -4 0 -10 -9 -13 -21 -3 -12 -10
-18 -15 -15 -6 3 -12 -1 -16 -9 -3 -8 -12 -15 -21 -15 -8 0 -15 -6 -15 -14 0
-7 -15 -21 -32 -30 -18 -8 -29 -16 -24 -16 18 0 -18 -30 -37 -30 -11 0 -17 -3
-14 -7 9 -8 -22 -43 -38 -43 -17 0 -28 -32 -14 -40 8 -6 8 -9 0 -14 -6 -4 -11
-2 -11 3 0 16 -16 13 -34 -4 -8 -8 -19 -15 -25 -15 -5 0 -16 -8 -23 -18 -7
-10 -21 -21 -30 -25 -10 -3 -18 -13 -18 -22 0 -8 -5 -15 -10 -15 -6 0 -39 -26
-74 -57 -34 -32 -82 -74 -105 -93 -24 -19 -67 -59 -97 -87 -29 -29 -58 -53
-63 -53 -6 0 -17 -10 -26 -23 -8 -13 -54 -57 -102 -98 -84 -70 -142 -123 -239
-216 -24 -24 -46 -43 -49 -43 -3 0 -31 -25 -62 -55 -32 -30 -65 -57 -74 -60
-9 -3 -21 -17 -27 -30 -7 -15 -20 -25 -34 -26 -13 0 -17 -3 -10 -6 6 -2 12
-10 12 -15 0 -6 -3 -9 -6 -5 -7 7 -87 -61 -189 -163 -12 -11 -26 -20 -33 -20
-6 0 -9 -7 -6 -15 4 -9 1 -15 -7 -15 -8 0 -23 -14 -34 -30 -11 -16 -23 -30
-27 -30 -5 0 -25 -17 -46 -38 -21 -21 -47 -45 -58 -53 -11 -8 -31 -29 -44 -46
-13 -18 -29 -33 -35 -33 -6 0 -17 -10 -24 -23 -6 -12 -27 -33 -46 -46 -19 -13
-35 -28 -35 -32 0 -14 -122 -139 -135 -139 -6 0 -18 -12 -26 -27 -20 -39 -70
-93 -80 -87 -5 3 -9 1 -9 -4 0 -5 -27 -38 -60 -74 -42 -45 -71 -68 -92 -72
-46 -9 -68 -33 -62 -65 4 -20 -2 -35 -26 -61 -17 -19 -45 -51 -61 -70 -16 -19
-81 -87 -144 -151 l-115 -115 32 -33 c52 -53 71 -63 102 -51 14 5 76 58 137
117 96 92 113 104 121 89 9 -16 12 -455 3 -521 -14 -107 -24 -326 -15 -320 4
2 6 -12 4 -33 -2 -20 -3 -41 -3 -45 -1 -5 -5 -5 -11 -2 -6 4 -10 -18 -10 -59
0 -38 5 -68 12 -72 8 -5 7 -10 -4 -18 -15 -11 -16 -26 -21 -194 0 -19 5 -37
12 -42 11 -6 11 -8 0 -12 -9 -3 -14 -25 -16 -64 -1 -32 -2 -59 -2 -59 -1 0 -3
-56 -6 -125 -9 -225 -10 -520 -2 -520 4 0 5 -5 1 -11 -8 -13 -8 -160 1 -374 4
-88 8 -194 9 -235 6 -161 19 -345 25 -355 3 -5 6 -35 7 -65 1 -80 15 -283 19
-291 3 -3 7 -35 10 -70 3 -35 10 -95 16 -134 6 -38 13 -95 15 -125 3 -30 12
-106 20 -168 19 -155 18 -181 -8 -209 -28 -30 -20 -45 42 -81 43 -25 53 -26
216 -30 180 -4 426 13 699 48 243 31 989 102 1227 116 82 5 131 3 162 -6 38
-10 49 -10 81 6 48 23 69 54 60 94 -4 16 -15 35 -25 40 -35 19 -42 74 -56 410
-7 166 -7 146 1 355 3 88 6 195 6 238 1 42 5 77 10 77 10 0 12 43 2 53 -10 11
-9 88 2 95 17 11 22 11 490 17 420 5 686 12 752 20 15 1 86 6 157 10 l128 7
-7 -53 c-4 -30 -24 -148 -45 -264 -21 -115 -43 -257 -49 -315 -6 -58 -16 -152
-22 -210 -6 -58 -11 -216 -10 -351 1 -211 -1 -248 -14 -253 -24 -9 -18 -33 20
-75 19 -21 35 -42 35 -45 0 -4 12 -22 26 -41 30 -40 105 -70 134 -55 10 6 28
10 39 10 11 0 30 13 42 29 20 27 26 29 122 35 56 4 156 13 222 21 137 15 254
27 425 40 36 3 90 7 120 10 259 23 869 36 1635 35 416 0 521 -5 531 -21 9 -14
66 -9 104 9 30 14 35 23 38 55 4 50 -10 65 -70 73 -27 4 -55 13 -63 20 -12 12
-44 12 -64 0 -4 -3 -316 -6 -692 -7 -664 -2 -1227 -16 -1487 -38 -70 -6 -174
-15 -232 -20 -58 -5 -143 -13 -190 -16 -47 -4 -123 -11 -170 -16 -47 -5 -115
-9 -152 -9 l-68 0 0 31 c0 18 -4 28 -10 24 -6 -3 -22 3 -36 14 -15 12 -32 21
-39 21 -23 0 -26 33 -24 225 3 262 13 366 59 655 20 126 29 179 35 225 3 17 7
39 9 50 3 11 14 63 26 115 12 52 29 116 38 142 16 46 16 48 -3 62 -40 29 -164
31 -465 6 -220 -18 -268 -19 -792 -21 -409 -1 -531 1 -543 11 -8 7 -15 9 -15
6 0 -4 -10 0 -22 8 -39 28 -133 18 -143 -14 -7 -23 16 -79 51 -126 26 -34 28
-44 32 -155 3 -65 9 -119 14 -119 5 0 6 -30 2 -72 -4 -40 -8 -127 -9 -193 -4
-157 -10 -238 -18 -252 -4 -7 -2 -15 4 -19 9 -5 7 -11 -6 -21 -11 -7 -13 -13
-7 -13 16 0 16 -67 0 -73 -10 -4 -10 -8 1 -15 12 -9 12 -13 2 -26 -9 -11 -10
-20 -1 -36 6 -11 9 -24 6 -28 -3 -5 -7 -59 -10 -122 -3 -62 -9 -116 -13 -120
-4 -4 -107 -15 -228 -24 -189 -14 -376 -32 -555 -51 -25 -3 -115 -12 -200 -20
-85 -9 -252 -27 -370 -40 -323 -36 -570 -50 -662 -36 -8 1 -13 31 -28 176 -6
61 -20 178 -30 260 -11 83 -26 218 -35 300 -9 83 -18 168 -20 190 -2 22 -11
139 -19 260 -9 121 -18 252 -21 290 -18 240 -27 1107 -14 1267 4 44 2 69 -5
73 -8 3 -7 7 2 11 16 7 16 54 0 54 -9 0 -8 3 2 10 11 7 15 28 16 77 0 37 3 82
7 98 3 17 9 84 12 150 3 66 12 203 20 305 30 395 30 551 -1 805 l-6 50 124
126 c68 69 135 131 151 137 15 6 27 16 27 22 0 7 -7 4 -16 -4 -8 -9 -21 -16
-27 -16 -14 0 455 467 653 650 74 69 169 157 210 195 41 39 118 108 170 155
52 47 121 109 155 139 33 30 105 96 160 146 55 51 118 107 140 126 22 19 94
81 160 139 66 58 133 117 149 130 16 14 44 40 62 58 19 17 39 32 44 32 6 0 10
4 10 8 0 5 12 14 26 20 15 7 22 17 18 24 -4 6 -3 8 4 4 6 -3 35 16 64 43 29
27 112 93 183 146 72 54 137 104 145 111 28 25 106 89 190 154 70 55 218 174
295 238 34 28 189 156 209 172 10 8 51 42 90 75 39 34 134 112 212 175 296
241 331 265 363 255 10 -3 83 -72 162 -153 78 -81 221 -228 318 -328 372 -381
604 -633 803 -870 l143 -172 -2 -67 c-1 -37 -7 -92 -13 -122 -11 -51 -10 -56
10 -78 12 -13 37 -31 55 -39 47 -23 104 -4 126 42 l17 33 96 -115 c53 -63 101
-120 108 -128 7 -7 56 -60 108 -118 52 -58 181 -197 285 -310 213 -230 366
-398 469 -516 38 -43 103 -117 145 -163 42 -47 96 -107 121 -135 24 -28 56
-64 69 -79 17 -19 22 -30 14 -35 -6 -4 -13 -32 -16 -62 -3 -46 -1 -59 18 -82
20 -24 24 -43 30 -150 4 -68 4 -202 1 -298 -4 -96 -9 -229 -11 -295 -2 -66 -6
-137 -10 -158 -3 -21 -1 -46 5 -57 6 -12 7 -21 0 -25 -5 -3 -9 -52 -9 -108 -1
-234 0 -321 4 -497 8 -342 9 -360 24 -360 10 0 11 -3 3 -13 -11 -12 -9 -102 4
-242 7 -72 10 -113 17 -225 7 -102 19 -224 23 -231 2 -4 6 -44 9 -89 9 -137
14 -175 25 -178 5 -2 10 -8 10 -13 0 -6 -4 -7 -10 -4 -16 10 -12 -52 5 -69 17
-16 20 -56 5 -56 -5 0 -10 -9 -10 -20 0 -11 4 -20 8 -20 5 0 9 -14 9 -31 0
-17 6 -35 14 -40 11 -7 11 -11 1 -17 -9 -6 -10 -26 -5 -72 3 -36 9 -56 12 -47
4 10 6 -19 6 -64 0 -57 4 -84 13 -86 6 -3 12 -9 12 -14 0 -6 -4 -7 -10 -4 -5
3 -10 -1 -10 -10 0 -9 4 -13 10 -10 6 4 7 -5 4 -24 -6 -27 21 -295 33 -331 3
-8 7 -44 9 -80 2 -36 9 -99 15 -140 6 -41 12 -88 13 -105 5 -56 37 -215 61
-310 14 -53 25 -122 25 -156 0 -49 4 -64 23 -83 27 -29 63 -38 91 -24 11 6 28
14 36 18 56 25 63 154 17 304 -45 148 -83 381 -141 866 -9 69 -22 181 -31 250
-50 406 -73 622 -90 815 -3 39 -8 90 -10 115 -2 25 -7 83 -10 130 -4 47 -8 96
-10 110 -2 14 -7 81 -10 150 -4 69 -9 139 -12 155 -8 56 -10 890 -2 980 15
171 23 381 24 577 0 109 1 198 2 198 7 0 258 -296 294 -348 58 -83 80 -103
115 -107 27 -3 54 14 54 33 0 5 7 15 15 22 8 7 15 16 15 21 0 12 -225 268
-386 439 -39 41 -124 138 -190 215 -65 76 -148 171 -184 210 -137 150 -229
251 -261 290 -19 22 -38 45 -44 51 -5 6 -37 42 -70 80 -33 37 -94 105 -136
149 -42 44 -98 105 -126 135 -27 30 -61 68 -76 84 -27 28 -28 40 -4 42 7 0 19
2 29 2 24 3 39 54 27 94 -6 21 -6 72 0 143 6 61 13 169 16 240 3 72 7 168 10
215 3 47 7 137 10 200 6 131 33 472 40 510 6 35 27 348 29 445 2 97 -10 203
-24 220 -10 12 -26 17 -115 35 -46 10 -85 -8 -85 -39 0 -17 -5 -18 -47 -9 -27
5 -156 8 -287 6 l-239 -3 -12 57 c-6 32 -13 59 -16 60 -63 40 -111 48 -151 27
-19 -10 -20 -17 -14 -93 11 -150 4 -1172 -9 -1184 -4 -4 -15 4 -24 18 -17 26
-227 267 -296 340 -24 25 -62 67 -86 95 -89 101 -326 354 -463 495 -78 80
-161 168 -186 195 -24 28 -97 105 -162 173 -65 68 -124 135 -132 150 -23 45
-100 69 -160 49z m2248 -526 c21 -5 43 -14 48 -19 9 -9 10 -94 5 -317 0 -11
-6 -94 -14 -185 -8 -91 -17 -205 -19 -255 -3 -49 -7 -115 -10 -147 -3 -33 -1
-59 5 -62 7 -5 7 -15 0 -33 -5 -15 -8 -32 -5 -40 3 -7 1 -13 -4 -13 -5 0 -9
-12 -9 -27 0 -16 -2 -62 -5 -103 -3 -41 -8 -124 -12 -185 -3 -60 -10 -137 -16
-170 -5 -33 -12 -73 -14 -90 -2 -16 -7 -50 -11 -74 l-8 -43 -43 41 c-23 22
-42 45 -42 50 0 5 -11 18 -24 28 -32 25 -191 203 -294 328 l-83 100 3 598 c2
465 6 599 16 605 6 5 72 9 144 11 73 1 135 4 137 7 8 8 216 4 255 -5z m-3309
-421 c-3 -5 -11 -10 -16 -10 -6 0 -7 5 -4 10 3 6 11 10 16 10 6 0 7 -4 4 -10z
m-199 -155 c-11 -8 -24 -15 -30 -15 -5 0 -1 7 10 15 10 8 24 14 29 14 6 0 1
-6 -9 -14z m-71 -55 c-3 -5 -11 -10 -16 -10 -6 0 -7 5 -4 10 3 6 11 10 16 10
6 0 7 -4 4 -10z m-45 -40 c-20 -13 -33 -13 -25 0 3 6 14 10 23 10 15 0 15 -2
2 -10z m-260 -205 c-7 -8 -17 -15 -22 -15 -11 0 14 29 26 30 5 0 3 -7 -4 -15z
m-105 -85 c-10 -11 -23 -20 -29 -20 -6 0 0 9 14 20 32 25 38 25 15 0z m-51
-45 c-7 -16 -24 -21 -24 -6 0 8 7 13 27 20 1 1 0 -6 -3 -14z m-184 -155 c-13
-11 -25 -20 -28 -20 -3 0 3 9 13 20 10 11 23 20 28 20 6 0 0 -9 -13 -20z
m-200 -169 c0 -5 -7 -12 -16 -15 -14 -5 -15 -4 -4 9 14 17 20 19 20 6z m-295
-271 c-3 -5 -11 -10 -16 -10 -6 0 -7 5 -4 10 3 6 11 10 16 10 6 0 7 -4 4 -10z
m5725 -4541 c0 -6 -4 -7 -10 -4 -5 3 -10 11 -10 16 0 6 5 7 10 4 6 -3 10 -11
10 -16z"/>
<path d="M4013 7360 c-33 -13 -28 -20 13 -20 23 0 34 4 32 12 -6 16 -19 18
-45 8z"/>
<path d="M6706 6698 l-26 -23 24 -27 c106 -119 440 -219 879 -264 l67 -6 2
-72 c1 -67 0 -209 -2 -250 -1 -11 -5 -27 -11 -37 -8 -16 -26 -18 -177 -18
-222 0 -325 11 -406 44 -67 27 -141 36 -186 22 l-25 -8 -1 193 c-1 273 -14
305 -134 315 -63 5 -88 -15 -73 -60 20 -55 35 -158 37 -244 0 -46 4 -83 7 -83
4 0 3 -20 -2 -45 -5 -25 -8 -94 -6 -153 1 -82 -1 -106 -11 -104 -14 2 -5 -50
10 -56 4 -2 5 -9 1 -15 -14 -22 -20 -86 -9 -92 8 -4 8 -7 0 -10 -7 -3 -9 -15
-6 -27 3 -12 1 -19 -4 -15 -6 3 -10 -14 -10 -39 -1 -24 3 -44 8 -44 5 0 6 -5
2 -11 -12 -21 -13 -153 -1 -161 8 -5 6 -8 -5 -8 -12 0 -18 -7 -17 -22 0 -13 3
-17 6 -10 7 17 20 15 20 -3 0 -8 -4 -15 -9 -15 -5 0 -6 -4 -3 -10 3 -5 1 -10
-6 -10 -9 0 -10 -3 -3 -10 6 -6 6 -50 1 -120 -9 -101 -8 -113 9 -132 11 -12
13 -18 7 -14 -18 10 -16 -7 7 -93 31 -111 36 -118 126 -196 100 -86 190 -85
429 5 325 123 613 189 965 220 69 7 147 16 174 21 27 5 69 9 93 9 l45 0 -6
-52 c-3 -29 -7 -62 -8 -73 -1 -11 -5 -22 -9 -25 -4 -3 -10 -41 -14 -85 -3 -44
-8 -92 -11 -107 -8 -40 28 -103 67 -117 46 -16 100 -13 132 7 32 19 53 68 63
145 5 39 4 47 -9 47 -9 0 -19 -4 -22 -10 -10 -17 -20 -11 -33 20 -7 16 -11 44
-8 62 2 18 8 70 12 116 8 99 13 103 110 88 116 -17 225 18 215 69 -8 45 -32
65 -76 65 -57 0 -95 15 -95 38 0 14 -9 18 -42 19 -23 1 -48 -3 -55 -9 -17 -14
-27 13 -19 48 4 14 9 45 12 67 3 23 14 103 25 177 11 74 24 176 30 225 6 50
13 93 17 96 4 3 28 14 55 23 41 16 47 21 47 47 0 41 -26 76 -61 84 -27 6 -30
10 -24 37 4 16 7 130 7 252 1 247 -4 273 -57 288 -28 8 -255 3 -300 -7 -62
-14 -165 -26 -395 -45 -355 -31 -906 44 -1111 149 -42 22 -94 42 -115 46 -21
3 -49 8 -61 11 -13 2 -32 -5 -47 -18z m1887 -310 c13 -106 20 -296 13 -340
l-7 -45 -387 5 c-213 2 -388 6 -390 7 -4 3 19 349 23 353 2 2 61 7 131 12 139
10 197 16 314 31 41 5 102 12 135 15 33 3 62 8 64 10 2 2 25 4 51 4 l47 0 6
-52z m-1673 -445 c95 -57 346 -91 560 -78 63 4 124 7 134 7 25 -1 38 -23 24
-39 -7 -9 -7 -13 0 -13 5 0 8 -14 6 -32 -2 -18 -5 -45 -6 -60 -1 -16 -6 -28
-11 -28 -6 0 -8 -53 -5 -135 3 -75 1 -138 -3 -141 -5 -3 -9 -12 -9 -20 0 -9 5
-12 11 -8 8 4 8 1 1 -12 -5 -11 -7 -28 -5 -39 2 -11 6 -42 8 -70 2 -27 6 -81
10 -120 3 -38 7 -81 8 -94 2 -23 -4 -25 -103 -48 -58 -13 -212 -60 -343 -104
l-238 -80 -31 22 c-33 24 -67 90 -94 184 -14 49 -18 110 -20 345 -1 157 2 326
6 375 5 50 9 119 11 155 3 88 6 96 33 72 11 -10 37 -28 56 -39z m1465 -63
c186 -3 193 -5 201 -46 3 -19 11 -31 16 -28 14 9 -1 -55 -18 -81 -8 -11 -14
-26 -13 -35 0 -10 3 -9 9 5 8 18 9 17 9 -7 1 -15 -4 -30 -9 -33 -6 -4 -8 -15
-5 -25 3 -10 1 -38 -4 -62 -6 -23 -12 -70 -15 -103 -7 -90 -17 -139 -30 -147
-8 -6 -7 -8 2 -8 8 0 10 -5 5 -12 -4 -7 -9 -33 -10 -58 -2 -43 -5 -79 -7 -80
-5 -3 -263 -34 -376 -45 -80 -8 -182 -22 -228 -31 -46 -9 -85 -14 -88 -12 -14
14 -27 139 -32 313 -6 178 -5 238 12 428 2 27 8 53 13 58 8 8 233 16 373 12
36 0 124 -2 195 -3z"/>
<path d="M5330 6496 c-3 -3 -60 -10 -125 -16 -197 -19 -392 -54 -740 -135
-291 -68 -412 -83 -476 -60 -91 35 -150 43 -191 27 -21 -8 -38 -21 -38 -28 0
-7 23 -32 52 -57 l51 -44 -35 -7 c-53 -10 -61 -25 -49 -88 5 -31 7 -192 4
-393 -5 -345 -8 -443 -22 -730 -4 -88 -6 -164 -4 -170 6 -18 70 -56 101 -59
22 -3 38 3 61 23 l31 28 1 389 c1 501 -5 447 44 439 94 -16 250 -23 387 -18
156 6 185 0 173 -38 -5 -15 -15 -118 -15 -156 -1 -42 3 -69 11 -79 6 -8 4 -14
-5 -17 -11 -5 -15 -18 -12 -47 2 -22 0 -40 -4 -40 -10 0 -9 -92 2 -112 6 -14
5 -18 -8 -18 -11 0 -14 -5 -9 -17 10 -24 12 -93 3 -93 -5 0 -8 -18 -8 -40 0
-22 5 -40 11 -40 5 0 7 -5 3 -12 -4 -7 -8 -82 -8 -168 l-1 -155 -40 -6 c-89
-14 -354 -48 -420 -54 -38 -4 -115 -15 -171 -25 -185 -33 -228 -78 -124 -129
l49 -25 138 22 c76 12 179 26 228 32 88 11 136 18 284 46 81 16 91 12 91 -34
0 -39 48 -122 70 -122 11 0 20 -5 20 -11 0 -10 68 -4 79 7 11 11 4 55 -16 99
-27 60 -29 92 -5 99 32 9 296 46 473 67 100 12 139 5 139 -25 0 -14 78 -56
104 -56 30 0 87 32 97 54 9 20 21 25 68 30 140 16 166 28 177 82 5 24 1 37
-14 52 -19 19 -31 21 -132 18 -61 -1 -113 1 -115 4 -3 4 -16 52 -29 106 -44
175 -57 292 -60 552 -4 324 37 979 65 1050 12 30 2 70 -20 82 -22 11 -114 24
-121 16z m-69 -241 c-2 -55 -5 -116 -8 -135 -3 -31 -10 -135 -16 -272 -1 -26
-5 -49 -7 -52 -7 -7 -270 -34 -401 -41 -124 -7 -134 -3 -123 42 2 10 13 108
24 218 30 292 19 266 120 288 126 26 329 56 375 54 l40 -2 -4 -100z m-685
-190 c0 -96 -3 -175 -6 -175 -3 0 -6 -32 -7 -72 -2 -39 -5 -74 -9 -77 -10 -10
-527 -5 -559 6 l-30 10 1 109 c1 60 3 134 4 164 2 30 0 69 -4 85 l-6 30 112 0
c115 0 125 2 393 70 50 13 95 24 101 24 8 1 11 -49 10 -174z m636 -420 c11 -4
13 -55 12 -265 -2 -285 7 -404 38 -555 35 -166 35 -155 1 -151 -16 2 -53 -2
-82 -10 -29 -7 -101 -18 -159 -24 -59 -6 -163 -20 -231 -31 -68 -11 -126 -17
-130 -14 -18 19 0 694 24 885 2 14 4 43 4 65 1 22 5 45 9 51 7 11 164 28 377
41 55 3 102 7 104 9 6 5 17 5 33 -1z"/>
</g>
</svg>
